<svg width="81" height="70" viewBox="0 0 81 70" fill="none" xmlns="http://www.w3.org/2000/svg">
<path d="M40.1129 27.2643C47.6417 27.2643 53.745 21.161 53.745 13.6322C53.745 6.10332 47.6417 0 40.1129 0C32.584 0 26.4807 6.10332 26.4807 13.6322C26.4807 21.161 32.584 27.2643 40.1129 27.2643Z" fill="black"/>
<path d="M67.6905 27.2641C72.4501 27.2641 76.3086 23.4057 76.3086 18.6461C76.3086 13.8865 72.4501 10.0281 67.6905 10.0281C62.9309 10.0281 59.0725 13.8865 59.0725 18.6461C59.0725 23.4057 62.9309 27.2641 67.6905 27.2641Z" fill="black"/>
<path d="M12.5353 27.2641C17.2949 27.2641 21.1533 23.4057 21.1533 18.6461C21.1533 13.8865 17.2949 10.0281 12.5353 10.0281C7.77566 10.0281 3.91724 13.8865 3.91724 18.6461C3.91724 23.4057 7.77566 27.2641 12.5353 27.2641Z" fill="black"/>
<path d="M21.0264 35.0033C17.6341 32.2239 14.5618 32.5918 10.6393 32.5918C4.77282 32.5918 0 37.3364 0 43.1669V60.2792C0 62.8113 2.06676 64.8702 4.6083 64.8702C15.5808 64.8702 14.2589 65.0688 14.2589 64.397C14.2589 52.2713 12.8227 43.3789 21.0264 35.0033Z" fill="black"/>
<path d="M43.8437 32.6543C36.9925 32.0829 31.0375 32.6609 25.901 36.9007C17.3054 43.7857 18.9596 53.056 18.9596 64.3969C18.9596 67.3973 21.4008 69.8842 24.4469 69.8842C57.5216 69.8842 58.838 70.9511 60.7993 66.6078C61.4425 65.139 61.2662 65.6057 61.2662 51.5544C61.2662 40.3939 51.6026 32.6543 43.8437 32.6543Z" fill="black"/>
<path d="M69.5868 32.5916C65.6429 32.5916 62.5875 32.2274 59.1997 35.0031C67.3422 43.3165 65.9672 51.6022 65.9672 64.3968C65.9672 65.0728 64.8699 64.87 75.4533 64.87C78.0857 64.87 80.2261 62.7375 80.2261 60.116V43.1667C80.2261 37.3362 75.4533 32.5916 69.5868 32.5916Z" fill="black"/>
</svg>
