<svg width="80" height="80" viewBox="0 0 80 80" fill="none" xmlns="http://www.w3.org/2000/svg">
<path d="M53.1999 40.0025L77.949 15.2534C80.6835 12.5189 80.6835 8.08561 77.949 5.35537L74.6496 2.05601C71.9142 -0.679355 67.4809 -0.679355 64.7507 2.05601L40.0025 26.8042L15.2534 2.05088C12.5189 -0.683628 8.08561 -0.683628 5.35537 2.05088L2.05088 5.35024C-0.683628 8.08561 -0.683628 12.5189 2.05088 15.2492L26.8042 40.0025L2.05601 64.7507C-0.679355 67.486 -0.679355 71.9194 2.05601 74.6496L5.35537 77.949C8.08988 80.6835 12.5232 80.6835 15.2534 77.949L40.0025 53.1999L64.7507 77.949C67.486 80.6835 71.9194 80.6835 74.6496 77.949L77.949 74.6496C80.6835 71.9142 80.6835 67.4809 77.949 64.7507L53.1999 40.0025Z" fill="black"/>
</svg>
