<svg width="80" height="80" viewBox="0 0 80 80" fill="none" xmlns="http://www.w3.org/2000/svg">
<path d="M67.4481 10H56.6144V6.66687C56.6144 2.99011 53.6249 0 49.9481 0H29.9481C26.2714 0 23.2812 2.99011 23.2812 6.66687V10H12.4481C7.39136 10 3.28125 14.1101 3.28125 19.1669V27.5C3.28125 28.88 4.40125 30 5.78125 30H9.94812V70.8331C9.94812 75.8899 14.0576 80 19.1144 80H60.7812C65.838 80 69.9481 75.8899 69.9481 70.8331V30H74.1144C75.4944 30 76.6144 28.88 76.6144 27.5V19.1669C76.6144 14.1101 72.5049 10 67.4481 10ZM29.9481 63.3331C29.9481 65.1733 28.4546 66.6669 26.6144 66.6669C24.7748 66.6669 23.2812 65.1733 23.2812 63.3331V43.3331C23.2812 41.4935 24.7748 40 26.6144 40C28.4546 40 29.9481 41.4935 29.9481 43.3331V63.3331ZM29.9481 6.66687H49.9481V10H29.9481V6.66687ZM43.2812 63.3331C43.2812 65.1733 41.7877 66.6669 39.9481 66.6669C38.1079 66.6669 36.6144 65.1733 36.6144 63.3331V43.3331C36.6144 41.4935 38.1079 40 39.9481 40C41.7877 40 43.2812 41.4935 43.2812 43.3331V63.3331ZM56.6144 63.3331C56.6144 65.1733 55.1215 66.6669 53.2812 66.6669C51.441 66.6669 49.9481 65.1733 49.9481 63.3331V43.3331C49.9481 41.4935 51.441 40 53.2812 40C55.1215 40 56.6144 41.4935 56.6144 43.3331V63.3331Z" fill="black"/>
</svg>
