<svg width="80" height="80" viewBox="0 0 80 80" fill="none" xmlns="http://www.w3.org/2000/svg">
<g clip-path="url(#clip0)">
<path d="M40.0002 40.1252C40.0002 40.925 40.2397 41.7248 40.6799 42.3246L60.6802 72.3246C61.4001 73.405 62.5999 74.1249 64.0002 74.1249H76.0002C78.1997 74.1249 80 72.3246 80 70.1252C80 69.3246 79.7598 68.5248 79.3203 67.925L60.8003 40.1252L79.3203 12.3246C79.7598 11.7248 80 10.925 80 10.1252C80 7.92499 78.1997 6.12469 76.0002 6.12469H64.0002C62.5999 6.12469 61.4001 6.84467 60.6802 7.92499L40.6799 37.925C40.2397 38.5248 40.0002 39.3246 40.0002 40.1252V40.1252Z" fill="black"/>
<path d="M-0.000240962 40.1252C-0.000240962 40.925 0.239993 41.7248 0.680179 42.3246L20.6797 72.3246C21.3997 73.405 22.6001 74.1249 23.9998 74.1249H35.9998C38.2 74.1249 40.0002 72.3246 40.0002 70.1252C40.0002 69.3246 39.76 68.5248 39.3198 67.925L20.7998 40.1252L39.3198 12.3246C39.76 11.7248 40.0002 10.925 40.0002 10.1252C40.0002 7.92499 38.2 6.12469 35.9998 6.12469H23.9998C22.6001 6.12469 21.3997 6.84467 20.6797 7.92499L0.680179 37.925C0.239993 38.5248 -0.000240962 39.3246 -0.000240962 40.1252V40.1252Z" fill="black"/>
</g>
<defs>
<clipPath id="clip0">
<rect width="80" height="80" fill="white" transform="matrix(-1 0 0 1 80 0)"/>
</clipPath>
</defs>
</svg>
