<svg width="80" height="80" viewBox="0 0 80 80" fill="none" xmlns="http://www.w3.org/2000/svg">
<g clip-path="url(#clip0)">
<path d="M39.9998 40.1252C39.9998 40.925 39.7603 41.7248 39.3201 42.3246L19.3198 72.3246C18.5999 73.405 17.4001 74.1249 15.9998 74.1249H3.99976C1.80029 74.1249 0 72.3246 0 70.1252C0 69.3246 0.240234 68.5248 0.679688 67.925L19.1997 40.1252L0.679688 12.3246C0.240234 11.7248 0 10.925 0 10.1252C0 7.92499 1.80029 6.12469 3.99976 6.12469H15.9998C17.4001 6.12469 18.5999 6.84467 19.3198 7.92499L39.3201 37.925C39.7603 38.5248 39.9998 39.3246 39.9998 40.1252Z" fill="black"/>
<path d="M80.0002 40.1252C80.0002 40.925 79.76 41.7248 79.3198 42.3246L59.3203 72.3246C58.6003 73.405 57.3999 74.1249 56.0002 74.1249H44.0002C41.8 74.1249 39.9998 72.3246 39.9998 70.1252C39.9998 69.3246 40.24 68.5248 40.6802 67.925L59.2002 40.1252L40.6802 12.3246C40.24 11.7248 39.9998 10.925 39.9998 10.1252C39.9998 7.92499 41.8 6.12469 44.0002 6.12469H56.0002C57.3999 6.12469 58.6003 6.84467 59.3203 7.92499L79.3198 37.925C79.76 38.5248 80.0002 39.3246 80.0002 40.1252Z" fill="black"/>
</g>
<defs>
<clipPath id="clip0">
<rect width="80" height="80" fill="white"/>
</clipPath>
</defs>
</svg>
