<svg width="80" height="80" viewBox="0 0 80 80" fill="none" xmlns="http://www.w3.org/2000/svg">
<g clip-path="url(#clip0)">
<path d="M49.4041 13.4368L5.38695 57.4571C5.1655 57.6792 5.0056 57.9596 4.92945 58.261L0.0505744 77.8438C-0.0953669 78.4333 0.0778591 79.0602 0.508068 79.4904C0.833581 79.8159 1.27712 79.9961 1.7308 79.9961C1.86976 79.9961 2.0119 79.979 2.15022 79.9441L21.733 75.0646C22.0382 74.9884 22.3155 74.8292 22.5369 74.6077L66.5579 30.5906L49.4041 13.4368Z" fill="black"/>
<path d="M77.463 7.4348L72.5632 2.53498C69.2884 -0.73981 63.5808 -0.736637 60.3098 2.53498L54.3079 8.53697L71.461 25.6901L77.463 19.6882C79.0988 18.053 79.9998 15.8765 79.9998 13.5618C79.9998 11.247 79.0988 9.07061 77.463 7.4348Z" fill="black"/>
</g>
<defs>
<clipPath id="clip0">
<rect width="80" height="80" fill="white"/>
</clipPath>
</defs>
</svg>
