<svg xmlns="http://www.w3.org/2000/svg" xmlns:xlink="http://www.w3.org/1999/xlink" xml:space="preserve" version="1.1" style="shape-rendering:geometricPrecision;text-rendering:geometricPrecision;image-rendering:optimizeQuality;" viewBox="0 0 454.34 388.01250000000005" x="0px" y="0px" fill-rule="evenodd" clip-rule="evenodd"><defs><style type="text/css">
   
    .fil0 {fill:black;fill-rule:nonzero}
   
  </style></defs><g><path class="fil0" d="M24.12 2.08l180.39 153.93c13.6,11.6 31.7,11.59 45.3,0l180.41 -153.93c-3.78,-1.35 -7.86,-2.08 -12.1,-2.08l-381.9 0c-4.24,0 -8.31,0.73 -12.1,2.08z"/><path class="fil0" d="M-0 294.37l158.32 -144.49 -153.77 -131.22c-2.9,5.21 -4.55,11.2 -4.55,17.56l0 258.15z"/><path class="fil0" d="M297.82 148.33l156.52 142.84 0 -254.95c0,-6.36 -1.65,-12.36 -4.55,-17.55l-151.97 129.66z"/><path class="fil0" d="M437.82 310.41l-159.43 -145.5 -12.12 10.34c-23.19,19.78 -55.03,19.8 -78.22,0l-10.31 -8.79 -157.72 143.95 417.8 0z"/></g><text x="0" y="325.41" fill="#000000" font-size="5px" font-weight="bold" font-family="'Helvetica Neue', Helvetica, Arial-Unicode, Arial, Sans-serif">Created by Ainsley Agatha</text><text x="0" y="330.41" fill="#000000" font-size="5px" font-weight="bold" font-family="'Helvetica Neue', Helvetica, Arial-Unicode, Arial, Sans-serif">from the Noun Project</text></svg>