<svg width="58" height="70" viewBox="0 0 58 70" fill="none" xmlns="http://www.w3.org/2000/svg">
<path d="M48.1287 13.6697H55.504L44.1633 1.84784V9.79408C44.1633 11.9421 45.9658 13.6697 48.1287 13.6697Z" fill="black"/>
<path d="M41.7596 9.79408V0H18.7621C15.7724 0 13.3691 2.46361 13.3691 5.45273V51.3283C13.3691 54.3179 15.7729 56.781 18.7621 56.781H51.6888C54.6785 56.781 57.0818 54.3174 57.0818 51.3283V16.073H48.1288C44.6441 16.073 41.7596 13.2639 41.7596 9.79408ZM35.2255 30.4183C31.6051 30.4183 28.6763 27.4741 28.6763 23.8692C28.6763 20.7444 30.8691 18.1307 33.7984 17.4701V16.073C33.7984 15.4118 34.3389 14.8714 35.0001 14.8714C35.6612 14.8714 36.2017 15.4118 36.2017 16.073V17.3948C39.3564 17.8605 41.7746 20.5943 41.7746 23.8692C41.7746 24.5303 41.2341 25.0708 40.573 25.0708C39.9123 25.0708 39.3713 24.5303 39.3713 23.8692C39.3713 21.5861 37.5085 19.7233 35.2255 19.7233C32.9424 19.7233 31.0796 21.5861 31.0796 23.8692C31.0796 26.1523 32.9424 28.0151 35.2255 28.0151C38.8458 28.0151 41.7746 30.9593 41.7746 34.5642C41.7746 37.8391 39.3564 40.5729 36.2017 41.0386V42.6611C36.2017 43.3222 35.6612 43.8627 35.0001 43.8627C34.3389 43.8627 33.7984 43.3222 33.7984 42.6611V40.9633C30.8691 40.3176 28.6763 37.689 28.6763 34.5642C28.6763 33.9036 29.2168 33.3626 29.8779 33.3626C30.5386 33.3626 31.0796 33.9036 31.0796 34.5642C31.0796 36.8478 32.9424 38.7101 35.2255 38.7101C37.5085 38.7101 39.3713 36.8478 39.3713 34.5642C39.3713 32.2811 37.5085 30.4183 35.2255 30.4183ZM48.79 48.3691C48.79 49.0302 48.249 49.5707 47.5884 49.5707H22.8625C22.2019 49.5707 21.6609 49.0302 21.6609 48.3691C21.6609 47.7084 22.2019 47.1674 22.8625 47.1674H47.6033C48.2639 47.1674 48.79 47.7084 48.79 48.3691Z" fill="black"/>
<path d="M10.9658 51.3283V6.79004C8.56197 7.33051 6.75952 9.49344 6.75952 12.0623V57.9378C6.75952 60.9269 9.16332 63.3905 12.1524 63.3905H45.0792C47.648 63.3905 49.796 61.5881 50.352 59.1848H18.7619C14.4505 59.1848 10.9658 55.6398 10.9658 51.3283Z" fill="black"/>
<path d="M4.35631 57.9378V13.3691C1.80244 13.8647 0 16.0581 0 18.6717V64.5473C0 67.5364 2.40326 70 5.39291 70H38.3197C40.8885 70 43.0365 68.1976 43.5925 65.7938H12.1525C7.84104 65.7938 4.35631 62.2487 4.35631 57.9378Z" fill="black"/>
</svg>
