<svg width="53" height="70" viewBox="0 0 53 70" fill="none" xmlns="http://www.w3.org/2000/svg">
<path d="M45.9375 26.25H43.75V17.5C43.75 7.84875 35.9013 0 26.25 0C16.5987 0 8.75 7.84875 8.75 17.5V26.25H6.5625C2.94583 26.25 0 29.1929 0 32.8125V63.4375C0 67.0571 2.94583 70 6.5625 70H45.9375C49.5542 70 52.5 67.0571 52.5 63.4375V32.8125C52.5 29.1929 49.5542 26.25 45.9375 26.25ZM14.5833 17.5C14.5833 11.0658 19.8158 5.83333 26.25 5.83333C32.6842 5.83333 37.9167 11.0658 37.9167 17.5V26.25H14.5833V17.5ZM29.1667 48.7725V55.4167C29.1667 57.0267 27.8629 58.3333 26.25 58.3333C24.6371 58.3333 23.3333 57.0267 23.3333 55.4167V48.7725C21.5979 47.7604 20.4167 45.8996 20.4167 43.75C20.4167 40.5329 23.0329 37.9167 26.25 37.9167C29.4671 37.9167 32.0833 40.5329 32.0833 43.75C32.0833 45.8996 30.9021 47.7604 29.1667 48.7725Z" fill="black"/>
</svg>
