<svg width="70" height="70" viewBox="0 0 70 70" fill="none" xmlns="http://www.w3.org/2000/svg">
<g clip-path="url(#clip0)">
<path d="M43.7495 37.917C42.1367 37.917 40.8331 39.2238 40.8331 40.8335V52.5004C40.8331 54.1073 39.5263 55.4168 37.9161 55.4168H29.1662V11.6673C29.1662 9.17647 27.5795 6.95107 25.1939 6.12276L24.3303 5.83383H37.9161C39.5263 5.83383 40.8331 7.14333 40.8331 8.75083V17.5007C40.8331 19.1104 42.1367 20.4172 43.7495 20.4172C45.3624 20.4172 46.666 19.1104 46.666 17.5007V8.75083C46.666 3.92673 42.7402 0.000915527 37.9161 0.000915527H6.56243C6.45135 0.000915527 6.35842 0.0505825 6.25055 0.0650018C6.11009 0.0532527 5.97604 0.000915527 5.83345 0.000915527C2.61632 0.000915527 0 2.6167 0 5.83383V58.3333C0 60.8241 1.58667 63.0495 3.97228 63.8778L21.525 69.7289C22.1199 69.9126 22.7116 70.0002 23.3333 70.0002C26.5504 70.0002 29.1662 67.3839 29.1662 64.1668V61.2503H37.9161C42.7402 61.2503 46.666 57.3245 46.666 52.5004V40.8335C46.666 39.2238 45.3624 37.917 43.7495 37.917Z" fill="black"/>
<path d="M69.1447 27.1051L57.4778 15.4387C56.6442 14.6046 55.3897 14.3535 54.2991 14.8054C53.2113 15.2577 52.4994 16.3221 52.4994 17.5007V26.2506H40.833C39.2228 26.2506 37.916 27.5569 37.916 29.1671C37.916 30.7772 39.2228 32.0835 40.833 32.0835H52.4994V40.8335C52.4994 42.0121 53.2113 43.0765 54.2991 43.5288C55.3897 43.9806 56.6442 43.7296 57.4778 42.896L69.1447 31.2291C70.2849 30.0889 70.2849 28.2453 69.1447 27.1051Z" fill="black"/>
</g>
<defs>
<clipPath id="clip0">
<rect width="70" height="70" fill="white"/>
</clipPath>
</defs>
</svg>
