<svg width="70" height="70" viewBox="0 0 70 70" fill="none" xmlns="http://www.w3.org/2000/svg">
<g clip-path="url(#clip0)">
<path d="M34.6282 0C27.1608 0 21.1077 6.12697 21.1077 13.6854C21.1077 21.2438 27.1608 27.3708 34.6282 27.3708C42.094 27.3708 48.1487 21.2438 48.1487 13.6854C48.1487 6.12697 42.094 0 34.6282 0Z" fill="black"/>
<path d="M20.5326 37.0449C12.0069 43.9568 13.648 53.2629 13.648 64.6485C13.648 67.6609 16.0693 70.1573 19.0904 70.1573C51.894 70.1573 53.1994 71.2285 55.1451 66.8681C55.7823 65.3941 55.6082 65.8629 55.6082 51.7559C55.6082 40.5512 46.0227 32.782 38.3284 32.782C31.5324 32.2079 25.6269 32.7883 20.5326 37.0449Z" fill="black"/>
</g>
<defs>
<clipPath id="clip0">
<rect width="69.1566" height="70" fill="white"/>
</clipPath>
</defs>
</svg>
