<svg width="69" height="70" viewBox="0 0 69 70" fill="none" xmlns="http://www.w3.org/2000/svg">
<path d="M66.9852 42.6709L60.5511 37.6396C60.6327 36.8638 60.7027 35.9568 60.7027 34.9971C60.7027 34.0375 60.6355 33.1305 60.5511 32.3546L66.9911 27.3205C68.1869 26.3755 68.5136 24.6984 67.7523 23.3014L61.0614 11.725C60.3468 10.4184 58.7806 9.7475 57.1911 10.3337L49.5989 13.3816C48.1436 12.3316 46.618 11.445 45.0402 10.7362L43.8852 2.68338C43.6955 1.155 42.3656 0 40.7936 0H27.3769C25.8048 0 24.4778 1.155 24.2911 2.66L23.1332 10.7421C21.6048 11.4305 20.1028 12.3055 18.5832 13.3875L10.9707 10.3309C9.5443 9.77963 7.83805 10.3979 7.1293 11.6988L0.429807 23.2896C-0.360564 24.6255 -0.0339429 26.3609 1.18819 27.3293L7.62231 32.3605C7.52018 33.3434 7.47069 34.198 7.47069 35.0001C7.47069 35.8023 7.52032 36.6568 7.62231 37.6426L1.18231 42.6768C-0.0135718 43.6246 -0.337322 45.3018 0.423928 46.6959L7.11481 58.2721C7.82944 59.5759 9.38106 60.2525 10.9852 59.6634L18.5773 56.6155C20.0298 57.6626 21.5552 58.5493 23.1332 59.2609L24.2882 67.3109C24.4777 68.845 25.8048 70 27.3798 70H40.7964C42.3686 70 43.6986 68.845 43.8852 67.34L45.043 59.2609C46.5714 58.5696 48.0705 57.6975 49.593 56.6125L57.2055 59.6691C57.573 59.812 57.9552 59.885 58.3489 59.885C59.4805 59.885 60.5218 59.2666 61.0468 58.3041L67.7668 46.6666C68.5136 45.3016 68.1868 43.6246 66.9852 42.6709ZM34.0852 46.6666C27.6511 46.6666 22.4186 41.4341 22.4186 35C22.4186 28.5659 27.6511 23.3334 34.0852 23.3334C40.5193 23.3334 45.7518 28.5659 45.7518 35C45.7518 41.4341 40.5193 46.6666 34.0852 46.6666Z" fill="black"/>
</svg>
