<svg width="72" height="70" viewBox="0 0 72 70" fill="none" xmlns="http://www.w3.org/2000/svg">
<g clip-path="url(#clip0)">
<path d="M60.282 19.8888L65.121 15.1871C66.294 14.0496 66.294 12.2033 65.121 11.0629C63.948 9.9225 62.052 9.9225 60.879 11.0629L56.04 15.7646C51.318 11.97 45.435 9.49083 39 8.89875V5.83333H45C46.659 5.83333 48 4.52667 48 2.91667C48 1.30667 46.659 0 45 0H27C25.341 0 24 1.30667 24 2.91667C24 4.52667 25.341 5.83333 27 5.83333H33V8.89875C17.034 10.3717 4.5 23.4733 4.5 39.375C4.5 56.2625 18.63 70 36 70C53.37 70 67.5 56.2625 67.5 39.375C67.5 31.9783 64.788 25.1883 60.282 19.8888ZM46.8 53.375C46.26 53.7687 45.627 53.9583 45.003 53.9583C44.091 53.9583 43.191 53.5558 42.6 52.7917L33.6 41.125C33.21 40.6204 33 40.0079 33 39.375V23.3333C33 21.7204 34.344 20.4167 36 20.4167C37.656 20.4167 39 21.7204 39 23.3333V38.4038L47.4 49.2917C48.393 50.5808 48.126 52.4096 46.8 53.375Z" fill="black"/>
</g>
<defs>
<clipPath id="clip0">
<rect width="72" height="70" fill="white"/>
</clipPath>
</defs>
</svg>
